# xmcd CD database file
#
# Track frame offsets:
#	150
#	16262
#	36967
#	58302
#	83555
#	99817
#	115440
#	128352
#	147230
#	163430
#
# Disc length: 2396 seconds
#
# Revision: 5
# Processed by: cddbd v1.4PL0 Copyright (c) Steve Scherf et al.
# Submitted via: jetAudio 5
#
DISCID=7f095a0a
DTITLE=Blondie - Blondie-Pat Benatar - Back to Back Hits
DYEAR=1900
DGENRE=
TTITLE0=Call Me
TTITLE1=Heart Of Glass
TTITLE2=The Tide Is High
TTITLE3=Rapture
TTITLE4=One Way Or Another
TTITLE5=Heartbreaker
TTITLE6=Hit Me With Your Best Shot
TTITLE7=Love Is A Battlefield
TTITLE8=We Live For Love
TTITLE9=We Belong
EXTD=Artist/Titles switched to correct orientation.
EXTT0=
EXTT1=
EXTT2=
EXTT3=
EXTT4=
EXTT5=
EXTT6=
EXTT7=
EXTT8=
EXTT9=
PLAYORDER=
